<svg width="70" height="69" viewBox="0 0 70 69" fill="none" xmlns="http://www.w3.org/2000/svg">
<g clip-path="url(#clip0_16_0)">
<path d="M69.1035 14.1563V54.1989C69.1035 57.8918 66.1226 60.8727 62.4298 60.8727H7.55658C3.86374 60.8727 0.882812 57.8918 0.882812 54.1989V14.1563C0.882812 14.0377 0.882812 13.919 0.897603 13.8004C1.07562 10.3894 3.78952 7.67534 7.20056 7.49746C7.31914 7.48267 7.43786 7.48267 7.55645 7.48267H62.4296C62.5482 7.48267 62.6817 7.48267 62.8004 7.49746C66.1967 7.67547 68.9106 10.3894 69.0886 13.7856C69.1035 13.9042 69.1035 14.0377 69.1035 14.1563Z" fill="white"/>
<path d="M62.8006 7.49721C62.6817 7.48242 62.5486 7.48242 62.4298 7.48242H34.9932V60.8726H62.4298C66.1226 60.8726 69.1035 57.8917 69.1035 54.1988V14.1562C69.1035 14.0376 69.1035 13.9041 69.0887 13.7854C68.9107 10.3893 66.1967 7.67523 62.8006 7.49721Z" fill="white"/>
<path d="M69.0888 13.7859C68.9107 10.3896 66.1968 7.67571 62.8006 7.49769C51.9005 18.3977 45.7794 24.5189 34.9932 35.305C30.9014 31.2108 11.2238 11.5208 7.20069 7.49756C3.78965 7.67557 1.07562 10.3895 0.897736 13.8005C0.882812 13.9192 0.882812 14.038 0.882812 14.1565V54.1992C0.882812 57.892 3.86374 60.8729 7.55659 60.8729H9.78122V22.6841L31.8492 44.7373C32.7094 45.6123 33.8513 46.0424 34.9933 46.0424C36.1352 46.0424 37.2772 45.6123 38.1375 44.7373L60.2054 22.6693V60.8729H62.43C66.1229 60.8729 69.1038 57.892 69.1038 54.1992V14.1565C69.1035 14.038 69.1035 13.9044 69.0888 13.7859Z" fill="#303030" fill-opacity="0.57"/>
<path d="M38.1372 44.7373L60.2051 22.6693V60.8729H62.4298C66.1226 60.8729 69.1035 57.892 69.1035 54.1992V14.1565C69.1035 14.038 69.1035 13.9044 69.0887 13.7857C68.9107 10.3895 66.1968 7.67557 62.8006 7.49756C51.9006 18.3977 45.7794 24.5189 34.9932 35.305V46.0423C36.1351 46.0423 37.2771 45.6123 38.1372 44.7373Z" fill="#303030" fill-opacity="0.57"/>
</g>
<defs>
<clipPath id="clip0_16_0">
<rect width="68.2207" height="68.2207" fill="white" transform="translate(0.882812 0.0673828)"/>
</clipPath>
</defs>
</svg>
